<svg class="main-svg" xmlns="http://www.w3.org/2000/svg" xmlns:xlink="http://www.w3.org/1999/xlink" width="900" height="600" style="" viewBox="0 0 900 600"><rect x="0" y="0" width="900" height="600" style="fill: rgb(255, 255, 255); fill-opacity: 1;"/><defs id="defs-1fefe2"><g class="clips"><clipPath id="clip1fefe2xyplot" class="plotclip"><rect width="592" height="405"/></clipPath><clipPath class="axesclip" id="clip1fefe2x"><rect x="119" y="0" width="592" height="600"/></clipPath><clipPath class="axesclip" id="clip1fefe2y"><rect x="0" y="100" width="900" height="405"/></clipPath><clipPath class="axesclip" id="clip1fefe2xy"><rect x="119" y="100" width="592" height="405"/></clipPath></g><g class="gradients"/></defs><g class="bglayer"><rect class="bg" x="119" y="100" width="592" height="405" style="fill: rgb(229, 236, 246); fill-opacity: 1; stroke-width: 0;"/></g><g class="layer-below"><g class="imagelayer"/><g class="shapelayer"/></g><g class="cartesianlayer"><g class="subplot xy"><g class="layer-subplot"><g class="shapelayer"/><g class="imagelayer"/></g><g class="gridlayer"><g class="x"><path class="xgrid crisp" transform="translate(237.4,0)" d="M0,100v405" style="stroke: rgb(255, 255, 255); stroke-opacity: 1; stroke-width: 1px;"/><path class="xgrid crisp" transform="translate(355.8,0)" d="M0,100v405" style="stroke: rgb(255, 255, 255); stroke-opacity: 1; stroke-width: 1px;"/><path class="xgrid crisp" transform="translate(474.2,0)" d="M0,100v405" style="stroke: rgb(255, 255, 255); stroke-opacity: 1; stroke-width: 1px;"/><path class="xgrid crisp" transform="translate(592.6,0)" d="M0,100v405" style="stroke: rgb(255, 255, 255); stroke-opacity: 1; stroke-width: 1px;"/></g><g class="y"><path class="ygrid crisp" transform="translate(0,389.37)" d="M119,0h592" style="stroke: rgb(255, 255, 255); stroke-opacity: 1; stroke-width: 1px;"/><path class="ygrid crisp" transform="translate(0,310.84000000000003)" d="M119,0h592" style="stroke: rgb(255, 255, 255); stroke-opacity: 1; stroke-width: 1px;"/><path class="ygrid crisp" transform="translate(0,232.31)" d="M119,0h592" style="stroke: rgb(255, 255, 255); stroke-opacity: 1; stroke-width: 1px;"/><path class="ygrid crisp" transform="translate(0,153.78)" d="M119,0h592" style="stroke: rgb(255, 255, 255); stroke-opacity: 1; stroke-width: 1px;"/></g></g><g class="zerolinelayer"><path class="xzl zl crisp" transform="translate(711,0)" d="M0,100v405" style="stroke: rgb(255, 255, 255); stroke-opacity: 1; stroke-width: 2px;"/><path class="yzl zl crisp" transform="translate(0,467.9)" d="M119,0h592" style="stroke: rgb(255, 255, 255); stroke-opacity: 1; stroke-width: 2px;"/></g><path class="xlines-below"/><path class="ylines-below"/><g class="overlines-below"/><g class="xaxislayer-below"/><g class="yaxislayer-below"/><g class="overaxes-below"/><g class="plot" transform="translate(119, 100)" clip-path="url('#clip1fefe2xyplot')"><g class="scatterlayer mlayer"><g class="trace scatter traceb06a80" style="stroke-miterlimit: 2; opacity: 1;"><g class="fills"/><g class="errorbars"/><g class="lines"><path class="js-line" d="M0,367.9L39.43,375.92L39.49,375.93L54.4,377.8L54.46,377.81L87.38,379.05L87.44,379.05L112.18,378.3L112.24,378.29L138.29,376.1L138.35,376.09L164.87,372.43L164.93,372.41L176.36,369.75L176.42,369.73L199.92,362.1L199.98,362.07L217.97,355.29L218.03,355.26L234.91,347.9L234.96,347.87L264.33,332.44L264.39,332.4L284.34,319.81L284.4,319.77L308.91,301.61L308.96,301.56L334.84,280.49L334.89,280.44L356.5,261.46L356.56,261.4L366.63,252.05L366.68,251.99L390.36,229.27L390.42,229.21L422.98,195.63L423.04,195.56L436.78,180.76L436.84,180.69L499.53,113.29L499.59,113.23L541.5,72.37L541.56,72.32L584.96,31.53L585.01,31.47L592,24.94" style="vector-effect: non-scaling-stroke; fill: none; stroke: rgb(99, 110, 250); stroke-opacity: 1; stroke-width: 2px; opacity: 1;"/></g><g class="points"/><g class="text"/></g><g class="trace scatter trace72b3a9" style="stroke-miterlimit: 2; opacity: 1;"><g class="fills"/><g class="errorbars"/><g class="lines"><path class="js-line" d="M0,367.9L5.62,367.36L5.68,367.22L6.69,367.55L6.75,367.63L8.58,368.38L8.64,368.56L8.94,368.81L9.71,367.89L9.77,368.04L9.83,368.6L10.06,368.77L10.36,367.77L10.6,368.08L10.66,368.2L10.89,367.6L11.01,368.66L11.25,368.32L11.31,368.59L12.49,371.3L12.55,371.07L13.32,370.46L13.38,370.8L13.44,370.65L13.62,371.78L13.85,370.97L13.91,371.52L14.03,371.83L15.57,366.44L15.63,366.35L15.75,366.75L15.98,365.34L16.04,364.59L16.28,365.51L16.64,363.86L16.69,363.61L17.29,360.85L17.52,361.94L17.58,362.95L17.82,364.65L18.12,362.82L18.17,363.28L18.23,362.94L18.65,364.24L18.88,362.26L18.94,361.8L19.06,360.77L19.3,362.6L19.6,361.65L19.65,360.76L19.71,360.32L20.13,362.38L20.19,362.74L20.36,363.93L21.02,361.3L21.08,361.32L21.13,362.06L21.73,365.14L22.08,364.03L22.14,363.98L23.38,358.79L23.56,360.14L23.62,360.51L24.33,364.42L24.39,364.97L25.34,362.3L25.46,363.16L25.52,363.01L26.4,365.77L26.46,365.7L28.06,359.74L28.12,360.12L28.36,359.34L28.65,360.76L28.71,360.68L28.77,360.86L29.24,359.62L29.54,360.34L29.6,360.74L30.61,363.03L30.67,362.93L30.72,362.99L31.02,363.68L31.26,362.8L31.44,363.04L31.49,363.3L32.26,365.5L32.38,365L32.44,364.92L32.97,364.71L33.51,366.55L33.57,366.29L33.63,365.74L33.74,365.05L34.1,366.71L34.34,365.7L34.4,365.8L34.63,364.89L34.87,366.31L35.11,365.68L35.16,366.21L35.4,365.99L35.64,367.52L35.88,367L35.93,365.95L36.11,365.35L36.64,366.4L36.7,366.2L36.76,365.93L38.3,369.67L38.42,369L38.48,368.52L38.78,367.39L39.37,369.01L39.43,368.65L39.49,368.45L39.72,370L39.78,370.1L40.14,370.24L40.26,369.33L40.37,369.61L40.43,369.26L40.55,369.15L40.91,370.07L41.2,369.38L41.26,368.95L41.5,369.44L41.62,368.4L42.03,369.14L42.09,368.59L42.15,369.08L42.51,367.43L42.8,368.4L42.86,368.37L43.04,368.33L43.1,369.29L43.16,369L43.39,370.25L43.75,369.77L43.81,369.65L43.99,369.86L44.76,368.83L44.81,369.11L45.88,367.42L45.94,367.67L46.65,366.29L46.77,366.59L46.83,366.87L46.95,367.32L47.36,366.11L47.54,366.81L47.6,366.59L47.83,366.81L48.01,366.16L48.07,365.92L48.54,363.7L48.9,364.46L48.96,364.94L49.25,364.33L49.79,365.62L49.85,365.57L50.62,367.2L50.68,367.45L51.15,367.63L51.5,366.48L51.56,367.1L51.62,367.49L51.8,367.23L52.57,368.71L52.63,368.49L52.69,367.85L53.04,367.65L53.28,368.31L53.4,368.05L53.46,367.75L53.52,367.36L54.05,368.27L54.11,368.24L54.17,368.58L55.12,370.58L55.17,370.41L55.23,369.98L55.83,369.31L55.94,370.03L56,370.13L56.6,370.99L56.77,370.38L56.83,370.04L57.42,370.66L57.6,370.04L57.66,369.85L57.72,369.63L58.02,370.99L58.13,370.93L58.19,371.02L59.02,371.77L59.08,371.83L59.5,371.79L59.85,373.23L59.91,373.13L59.97,373.02L60.15,372.51L61.15,375.07L61.21,374.84L62.34,376.45L62.4,375.97L62.63,376.69L63.17,376.11L63.23,375.92L63.7,376.45L64,375.95L64.05,376.19L64.88,374.38L65.06,375.01L65.12,375.29L65.71,374.78L66.42,376.92L66.54,376.85L66.6,376.72L66.96,377.04L67.19,376.43L67.37,376.75L67.43,377.01L68.2,376.19L68.38,376.6L68.44,376.78L68.79,375.98L69.15,376.74L69.2,376.38L69.97,374.77L70.15,375.16L70.21,375.06L70.39,374.73L70.74,375.57L70.8,375.6L71.28,376.14L71.45,375.7L71.51,375.41L72.28,374L72.46,374.51L72.52,374.82L72.76,375.35L73.05,374.22L73.11,373.96L73.88,372.73L74.12,373.24L74.18,373.69L74.24,373.97L74.65,372.47L74.71,372.53L75.3,374.42L75.6,373.98L75.66,373.6L75.95,373.09L76.13,373.78L76.37,373.38L76.43,373.3L76.49,373.45L76.66,372.73L76.84,372.82L76.9,372.38L77.79,374.2L77.85,374.08L78.2,372.91L78.44,374.45L78.5,374.6L78.85,375.58L79.21,374.54L79.27,374.85L79.45,375.37L79.74,374.2L79.8,374.14L80.69,372L80.87,372.18L80.93,372.26L81.7,371.15L81.76,370.74L81.93,370.48L82.11,371.39L82.52,370.91L82.58,370.92L82.82,371.09L83.65,369.06L83.71,369.13L83.77,369.67L84.06,369.45L85.25,371.93L85.31,372.3L86.02,374.82L86.43,374.46L86.49,373.9L86.61,373.61L86.91,374.82L87.02,374.31L87.08,374.8L87.26,374.35L87.73,375.39L87.79,375.57L89.33,378.46L89.45,377.71L89.51,377.6L89.75,377.68L89.92,377.16L89.98,376.95L90.69,377.91L90.87,377.55L90.93,377.1L91.05,376.97L91.17,377.83L91.23,377.84L91.29,378L92.12,379.79L92.23,379.23L92.29,378.97L92.41,378.62L92.83,379.91L92.88,379.93L93.48,378.01L93.65,379.36L93.71,379.51L94.48,380.63L94.54,380.28L94.6,380.4L94.84,381.24L95.25,380.26L95.31,380.34L95.37,380.34L95.55,380.58L95.79,379.89L95.96,380.49L96.02,380.96L96.08,381.34L96.61,380.21L96.67,379.97L96.73,380.39L97.27,379.32L97.32,379.51L97.38,379.16L97.98,379.96L98.15,379.46L98.21,379.08L99.16,381.67L99.22,381.71L99.87,382.43L99.99,381.82L100.05,381.64L100.11,381.96L100.58,381L100.76,381.66L100.82,381.44L100.88,381.06L101.35,382.65L101.41,382.76L101.82,382.44L102.06,383.27L102.18,383.18L102.24,382.94L102.59,382.24L102.95,382.56L103.01,382.85L103.66,381.82L103.84,382.18L103.9,382.72L104.31,383.14L104.96,381.14L105.02,381.32L105.08,381.62L105.44,381.96L105.61,381.44L105.67,380.86L105.97,381.29L106.2,380.74L106.32,381.16L106.38,381.58L106.5,380.88L107.15,381.36L107.21,381.73L107.33,382.34L107.57,381.25L107.92,381.93L107.98,381.89L108.16,382.48L108.45,381.52L108.69,382.05L108.75,381.4L108.87,381.86L109.05,381.11L109.52,381.6L109.58,381.16L109.93,381.65L110.35,381.17L110.41,381.18L110.47,381.73L110.76,381.08L111.18,381.42L111.24,381.34L111.3,381.63L111.71,380.4L112.01,381.36L112.07,381.12L112.84,379.8L113.01,380.71L113.07,380.68L113.13,380.89L113.49,379.7L113.55,379.52L114.61,381.1L114.67,381.03L115.03,381.53L115.08,381.75L115.2,381.57L116.21,383.16L116.27,382.88L117.04,384.19L117.16,383.76L117.22,383.86L117.99,382.74L118.1,382.96L118.16,383.19L118.52,383.6L118.76,382.48L118.99,382.85L119.05,382.83L120.24,384.28L120.53,383.79L120.59,383.7L121.95,381.32L122.01,381.35L122.07,381.35L123.02,379.93L123.08,380.12L123.37,379.87L124.02,381.03L124.08,380.64L124.56,380.36L124.62,380.69L124.68,380.91L125.09,380.82L125.27,381.35L125.44,381.03L125.5,380.98L126.04,380.3L126.27,380.76L126.33,380.71L127.58,379.47L127.64,379.81L127.93,380.02L128.23,379.5L128.35,380.03L128.4,380.3L129.12,380.12L129.17,379.7L129.47,379.49L129.83,380.14L129.94,379.78L130,379.81L130.42,379.35L130.71,379.85L130.77,380.02L130.83,379.8L131.36,380.46L131.42,380.49L131.66,380.78L132.31,380.59L132.37,380.84L132.43,380.69L132.61,381.43L132.96,381.29L133.02,381.49L133.26,382.43L133.32,383.07L134.68,384.75L134.8,384.12L134.86,383.93L135.09,383.66L135.15,384.26L135.33,384.25L135.39,384.51L135.8,383.04L136.16,384.01L136.22,384.14L136.57,384.31L136.99,384.03L137.05,383.48L138.11,384.52L138.17,384.28L138.23,383.81L138.29,384.08L138.71,383.19L138.82,383.2L138.88,383.09L139.06,383.43L139.53,382.75L139.59,383.09L139.65,382.69L140.48,383.81L140.66,383.69L140.72,383.71L140.78,383.96L141.07,382.81L141.25,382.97L141.31,382.95L141.96,382.93L142.02,383.22L142.2,383.11L143.09,384.22L143.2,383.83L143.26,383.64L143.5,383.9L143.8,383.27L143.86,383.26L143.92,383.12L144.63,384.66L144.8,384.17L144.86,383.76L144.92,383.95L145.28,382.85L145.4,383L145.45,383.04L145.87,382.71L145.99,383.3L146.22,382.95L146.28,382.82L146.76,383.11L147.05,382.43L147.11,382.66L147.47,382.78L147.59,382.13L147.64,382.02L148.53,383.48L148.83,383.14L148.89,382.94L149.89,380.55L150.01,380.71L150.07,380.84L150.49,380.2L150.84,380.63L150.9,380.62L151.97,378.53L152.03,379.04L152.26,378.9L152.56,379.84L152.62,380.03L152.8,379.11L153.33,379.52L153.39,379.64L153.51,380.08L154.04,378.99L154.1,378.88L154.28,379.52L154.69,378.01L154.75,378L155.1,377.7L155.4,378.08L155.46,378.29L155.99,377.69L156.17,378.19L156.23,378.62L156.94,377.85L157.12,378.14L157.18,378.19L157.59,378.91L157.89,378.11L157.95,377.87L158.18,378.28L158.83,376.8L158.89,377.01L159.01,377.35L159.54,376.52L159.6,376.55L159.84,376.64L159.96,376.15L160.25,376.39L160.31,376.01L160.55,375.22L161.08,375.78L161.14,375.89L161.79,376.6L161.97,376.01L162.03,375.93L162.21,375.58L162.68,376.41L162.74,376.38L163.87,375.22L163.92,375.39L163.98,375.36L164.1,374.84L164.69,375.51L164.75,375.66L165.17,375.06L165.4,375.8L165.46,376.22L166.29,374.81L166.65,375.09L166.71,375.6L167.77,374.48L167.83,374.71L168.72,373.39L168.78,373.59L168.84,373.79L169.61,373.56L169.73,373.78L169.79,373.85L170.38,373.17L170.61,373.85L170.67,373.93L171.5,372.85L171.56,373.03L171.8,373.38L172.09,372.66L172.15,372.76L172.21,372.29L172.51,372.6L172.69,371.75L172.98,371.85L173.04,372.19L173.28,371.97L173.52,372.66L173.63,372.52L173.69,372.66L174.23,372.28L174.28,371.7L175,372.65L175.17,372.34L175.23,372.38L175.41,371.87L175.88,372.98L175.94,372.93L176.12,372.59L176.48,373.41L176.53,373.28L176.59,373.62L176.89,373.22L177.24,373.94L177.3,373.81L177.36,374.08L178.13,374.61L178.19,374.2L178.96,373.28L179.14,373.59L179.2,373.6L179.73,372.91L179.91,373.53L179.97,373.63L180.15,374.31L180.62,373.61L180.68,373.21L181.09,373.73L181.21,372.98L181.27,373L181.33,372.8L181.68,373.74L181.74,373.68L181.8,373.93L182.63,374.8L182.69,375.29L182.81,375.58L183.11,374.65L183.16,374.71L183.22,374.36L184.53,375.56L184.59,375.26L184.64,374.99L184.88,375.24L185.24,374.58L185.3,374.42L185.36,374.64L185.71,373.34L185.77,373.21L185.95,373.18L186.01,373.82L186.07,374.23L186.36,374.49L187.78,372.32L187.84,372.82L188.02,372.52L189.38,373.8L189.44,373.63L189.8,374.93L190.27,374.2L190.33,374.23L190.98,374.61L191.1,374.15L191.16,373.89L191.45,372.63L191.99,373.51L192.04,373.59L192.28,373.99L192.64,373.17L192.7,373.18L193.64,373.91L193.7,373.64L193.88,373.38L194.12,373.97L194.18,374.27L194.89,374.85L195.06,374.64L195.12,374.56L196.25,373.46L196.31,373.42L197.55,371.3L197.61,371.46L198.56,372.84L198.62,372.77L198.68,372.03L198.79,372.47L199.09,371.51L199.27,371.89L199.33,371.62L200.81,369.12L200.87,369.48L202.64,367.8L202.76,368.01L202.82,368.22L203.23,367.83L203.94,369.59L204.12,369.08L204.18,368.76L206.43,365.47L206.49,365.76L206.55,365.93L206.61,366.09L207.02,365.19L207.14,365.79L207.2,365.44L207.44,365.74L207.97,365.08L208.03,365.33L208.09,365.46L208.68,364.72L208.74,364.52L209.04,363.79L209.57,364.12L209.63,364.25L210.04,364.93L210.34,364.25L210.4,364.23L211.23,363.04L211.28,363.25L211.34,363.36L211.46,363.61L211.7,362.78L211.88,362.85L211.94,362.66L212.41,362.13L212.65,362.94L212.71,362.97L213.95,361.5L214.07,361.87L214.13,362.22L214.72,363.02L214.84,362.45L214.9,362.18L215.84,361.06L215.9,361.11L216.91,361.87L216.97,361.43L217.03,360.96L217.74,359.82L218.03,360.02L218.09,360.18L219.04,361.47L219.1,361.57L219.34,361.02L219.51,361.77L219.87,361.33L219.93,361.15L220.99,359.89L221.17,360.36L221.23,360.42L221.47,360.49L222.06,359.88L222.12,359.93L223.18,361L223.24,360.73L224.25,360.75L224.31,360.53L224.78,359.89L225.08,360.29L225.14,360.35L227.39,355.71L227.45,355.76L227.51,356.01L228.1,355.33L228.16,355.39L229.7,352.55L229.76,352.59L231,350.32L231.06,350.42L231.89,348.88L232,349.28L232.06,349.2L232.83,347.52L232.89,347.26L233.01,347.06L233.9,348.45L233.96,348.37L234.02,348.34L236.15,344.88L236.21,345.04L236.27,345.04L236.44,345.36L236.8,344.57L236.86,344.53L237.81,343.1L237.92,343.69L237.98,343.92L238.81,344.84L238.87,344.68L238.93,344.26L241.12,340.69L241.18,340.91L242.07,340.77L242.13,340.49L242.19,340.13L243.02,338.98L243.08,338.9L243.49,339.42L243.9,338.66L243.96,338.67L244.73,336.76L244.97,337.26L245.03,337.32L245.15,336.73L245.5,337.63L245.56,337.47L245.62,337.7L246.8,337.22L246.86,337.65L247.34,338.12L247.4,338.39L247.52,338.75L247.87,338.34L248.11,338.48L248.17,338.61L248.34,338.77L248.7,338.47L248.82,338.67L248.88,338.9L248.94,339.15L249.41,338.2L249.47,338.04L250,336.78L250.3,337.07L250.36,337.21L251.07,338.33L251.24,337.59L251.3,337.43L252.31,338.85L252.43,338.65L252.49,338.46L253.08,337.43L253.26,338.03L253.32,338.16L253.61,337.92L254.15,339.1L254.26,338.62L254.32,338.62L255.09,337.78L255.21,337.86L255.27,337.67L257.99,333.12L258.05,332.67L258.7,332.38L258.82,332.76L258.88,332.76L259.06,332.82L260.18,330.74L260.24,330.84L260.54,330.78L260.72,331.41L260.78,331.56L261.78,332.63L261.9,332L261.96,331.85L262.43,330.83L262.61,331.62L262.67,331.94L263.26,332.73L263.44,332.04L263.5,331.9L263.97,331.03L264.15,331.65L264.21,331.96L266.34,326.18L266.81,326.63L266.87,326.71L267.29,327.85L267.82,327.58L267.88,327.11L268.06,326.62L268.65,326.97L268.71,327.28L269.77,325.02L269.83,324.49L270.13,324.94L270.48,324.22L270.54,324.12L270.96,324.35L271.37,323.63L271.43,323.96L272.38,325.46L272.62,325.15L272.68,325.07L272.91,324.1L273.44,324.41L273.5,324.6L273.8,323.86L273.86,324.41L273.92,324.91L274.98,323.52L275.04,323.5L275.75,323.72L275.81,323.82L276.52,322.4L276.76,323.38L276.82,323.76L277.53,322.99L277.83,323.33L277.88,323.42L278.36,323.15L278.42,322.99L278.48,322.82L279.36,320.74L279.54,321.02L279.6,321.56L280.49,322.32L280.61,322.22L280.67,322.2L281.08,322.18L281.14,322.8L281.73,322.21L281.85,322.87L281.91,322.97L282.56,323.57L282.74,323.07L282.8,322.99L283.63,322.1L283.75,322.18L283.8,322.39L285.64,320.43L285.7,320.67L286.76,319.16L286.88,319.22L286.94,319.32L287.59,319.7L287.65,319.61L287.71,319.3L288.72,317.66L288.78,317.71L288.84,317.71L289.13,318.71L289.61,318.03L289.67,318.09L289.9,318.19L289.96,318.54L290.02,319.02L290.2,318.91L290.44,319.59L290.79,319.12L290.85,318.64L290.91,318.8L291.38,318.09L291.44,318.26L291.5,317.87L292.51,316.84L292.57,316.79L293.57,315.36L293.75,315.91L293.81,316.27L293.87,316.41L294.22,315.47L294.34,315.71L294.4,315.66L295.88,313.68L295.94,313.71L296.53,311.82L296.89,312.26L296.95,312.23L297.07,312.07L297.78,312.71L297.84,312.66L297.89,312.71L298.31,313.21L298.55,312.5L298.6,312.25L298.84,312.39L299.49,311.2L299.55,311.58L300.97,310.69L301.03,310.4L302.1,309.27L302.16,308.93L302.57,309.29L302.69,308.54L302.81,308.6L302.87,308.58L302.93,308.79L303.16,307.54L303.22,307.56L303.28,307.26L305.18,303.92L305.24,304L305.29,304.22L305.41,304.45L305.83,303.67L305.89,303.65L306.6,303.03L306.66,303.15L306.72,303.22L308.14,300.7L308.2,300.87L308.25,300.92L310.27,297.28L310.33,297.37L311.27,295.76L311.33,295.49L312.16,294.13L312.22,294.28L313.29,295.8L313.35,295.7L313.58,296L314,295.42L314.23,295.76L314.29,295.85L314.41,296.08L315.36,294.75L315.42,294.61L315.54,295.03L315.89,293.97L316.01,294.19L316.07,293.83L316.96,292.41L317.02,292.64L317.08,292.7L318.02,290.64L318.14,291.04L318.2,291.2L320.04,288.07L320.09,288.11L320.33,287.49L320.69,288.47L320.75,288.65L321.87,286.96L321.93,286.98L323.05,285.23L323.11,285.4L323.17,285.27L323.47,284.61L324,284.88L324.06,285.03L325.78,282.62L325.84,282.74L325.9,282.7L328.8,278.38L328.97,278.88L329.03,279.14L329.33,278.42L329.63,279.42L329.8,279.04L329.86,279.22L331.28,277.49L331.34,277.63L332.11,276.79L332.17,276.87L332.23,277.06L332.35,277.19L332.47,276.77L332.64,276.64L332.7,276.11L335.13,273.6L335.19,273.32L336.14,271.48L336.32,272.15L336.37,272.18L337.85,273.01L337.91,272.92L337.97,272.53L338.86,271.4L338.98,271.52L339.04,271.46L342,268.2L342.06,268.51L342.12,268.59L343.18,267.64L343.24,267.97L344.25,266.51L344.31,266.53L345.14,265.68L345.2,265.76L345.25,266L346.44,264.17L346.62,264.33L346.68,264.21L347.33,262.57L347.62,262.62L347.68,262.5L348.57,263.14L348.63,263.03L348.69,262.72L349.28,261.42L349.69,261.57L349.75,261.98L350.23,261.77L350.4,262.19L350.46,262.41L350.82,262.65L351,262.15L351.06,261.77L352.6,259.28L352.65,259.38L353.07,258.72L353.48,258.84L353.54,258.84L354.31,257.41L354.55,257.88L354.61,258.3L354.67,258.45L354.96,257.55L355.2,257.94L355.26,257.85L355.67,257.94L355.73,257.55L355.79,257.25L356.15,256.55L356.68,256.69L356.74,256.73L356.98,257.12L357.39,256.69L357.45,256.31L357.69,256.43L357.86,255.97L357.98,256L358.04,255.61L359.52,253.99L359.58,254.07L360.71,252.69L360.82,252.88L360.88,253.09L361,253.28L361.24,252.37L361.3,252.04L363.31,249.54L363.37,249.07L364.67,246.18L364.73,246.45L364.91,246.83L365.2,245.82L365.32,245.96L365.38,245.8L366.68,244.6L366.74,244.99L366.8,245.23L368.34,244.65L368.4,244.54L368.76,244.66L368.99,244.09L369.05,244.24L369.11,244.06L369.76,243.2L370,243.72L370.06,243.9L370.65,243.07L370.83,243.5L370.89,244.08L372.55,241.86L372.6,241.31L372.9,241.01L373.02,241.85L373.32,241.48L373.37,241.76L374.5,239.64L374.56,239.6L374.68,239.34L374.97,240.16L375.15,239.92L375.21,240.12L376.22,239.3L376.33,239.59L376.39,239.67L376.63,239.96L377.76,238.82L377.81,238.95L379.41,236.73L379.53,236.95L379.59,236.94L380.18,235.87L380.42,236.2L380.48,236.21L380.89,236.65L381.13,235.86L381.19,235.8L381.48,236.01L381.72,235.5L381.96,235.83L382.02,236.06L383.32,233.4L383.38,233.55L383.85,232.76L384.03,233.39L384.09,233.62L384.39,232.74L384.8,233.1L384.86,233.58L385.51,232.67L385.75,233.12L385.81,233.2L387.52,231.57L387.58,231.3L388.65,230.3L388.71,230.38L389.06,230.54L389.77,229.2L389.83,229.07L389.95,229.34L390.13,228.69L390.48,229.11L390.54,228.81L391.37,229.09L391.49,228.97L391.55,228.79L391.84,229.08L392.26,228.79L392.32,228.71L394.8,224.93L394.86,224.52L394.98,224.69L395.34,223.74L395.4,223.57L396.46,222.45L396.52,222.71L399.78,218.6L400.01,219.02L400.07,219.09L402.26,214.98L402.38,215.19L402.44,215.15L402.97,214.19L403.03,213.91L403.15,214.11L403.33,213.33L403.63,213.49L403.68,213.43L404.16,213.13L404.22,212.82L404.4,213L404.57,212.21L404.75,212.56L404.81,212.34L404.99,212.64L405.34,211.95L405.4,211.96L405.46,211.88L407,210.68L407.18,211.24L407.24,211.59L407.36,211.86L407.71,211.01L407.95,211.45L408.01,211.19L408.72,209.45L409.07,209.96L409.13,209.79L409.43,210.18L409.9,209.68L409.96,209.46L411.32,208.54L411.38,209.03L412.8,206.62L412.92,206.96L412.98,206.87L413.51,205.27L413.81,206.06L413.87,206.23L414.64,206.69L414.7,206.42L414.76,206.2L415.94,203.88L416,203.84L416.35,204.14L416.53,203.49L416.71,203.74L416.77,204.13L417.77,205.28L417.83,205.22L417.89,205.1L418.19,205.79L418.31,205.28L418.37,204.97L418.96,203.87L419.02,203.47L420.38,201.84L420.44,201.9L421.98,200.06L422.04,199.87L422.16,200.18L422.57,199.3L422.63,199.27L423.46,198.21L423.52,198.25L424.88,196.83L424.94,197.02L425.29,196.18L425.53,196.6L425.59,197.13L426.3,197.98L426.42,197.39L426.48,197.11L426.83,198.03L427.25,197.37L427.31,197.16L430.68,191.62L430.74,191.51L430.92,191.67L431.63,190.15L431.75,190.32L431.8,190.65L432.63,188L432.75,188.13L432.81,188.22L433.58,185.9L434,186.07L434.05,185.95L434.23,186.06L434.41,185.59L434.47,185.3L436.19,180.54L436.3,180.76L436.36,180.8L437.01,180.35L437.07,180.76L437.13,181.04L437.49,181.64L437.72,180.66L437.78,180.51L439.2,178.16L439.26,178.19L439.32,178.62L439.5,179.18L439.97,178.18L440.03,177.81L441.22,175.31L441.28,175.48L442.28,172.98L442.46,173.02L442.52,173.05L443.29,171.65L443.41,171.68L443.47,171.37L444.83,168.8L445.07,169.04L445.12,169.45L445.24,169.64L445.6,169.1L445.72,169.07L445.78,169.04L446.84,167.32L446.9,167.21L446.96,167.4L447.32,166.69L447.37,166.12L447.55,166.25L447.79,165.67L447.85,165.24L451.16,160.5L451.22,160.02L452.64,157.42L452.7,157.8L452.94,158.17L453.18,157.55L453.24,157.47L454.48,155.75L454.54,155.8L454.6,156.05L455.19,156.22L455.25,155.87L455.31,155.06L457.08,153.29L457.2,153.65L457.26,153.86L457.56,154.17L457.79,153.52L457.97,154.03L458.03,153.85L458.09,153.99L458.27,153.4L458.5,153.44L458.56,153L458.62,152.72L458.74,153.28L459.33,152.93L459.39,152.94L460.52,150.98L460.58,151L461.94,150L462,150.18L462.06,150.45L462.59,150.86L462.83,150.29L462.88,150.2L463.77,148.18L463.83,148.14L466.14,144.42L466.2,144.52L466.26,144.09L466.56,143.97L466.91,144.93L467.09,144.77L467.15,144.77L467.68,145.06L467.8,144.84L467.86,144.33L467.98,144.56L468.21,144.03L468.57,144.12L468.63,144.02L469.57,144.11L469.63,144.65L469.99,144.6L470.05,143.94L470.52,144.03L470.58,143.6L470.64,143.5L470.82,143.65L471.29,142.64L471.65,143.03L471.71,143.3L471.94,143.65L472.65,142.34L472.71,142.41L472.77,142.42L473.01,142.8L473.24,141.87L473.36,142L473.42,141.81L473.48,142.2L474.13,141.54L474.19,141.5L474.37,141.93L474.72,141.01L474.78,141.12L474.84,140.97L476.26,139.28L476.32,139.41L476.38,139.76L478.28,137.69L478.34,137.84L478.4,138.13L478.87,137.39L479.05,137.58L479.11,137.41L479.58,137.15L479.64,136.83L479.7,136.53L480.64,134.76L480.7,134.56L481.95,132.02L482.12,132.26L482.18,132.33L483.31,130.59L483.37,130.58L484.26,129.94L484.32,129.53L484.79,130.12L485.03,129.28L485.08,129.21L488.58,123.79L488.64,123.86L488.7,124.13L489.11,123.2L489.17,122.67L489.23,122.84L489.64,121.84L489.7,122.22L489.76,121.87L489.82,121.7L490.29,122.42L490.47,122.06L490.53,122L490.77,122.21L491.66,120.52L491.72,120.85L491.95,121.05L492.31,120.45L492.37,120.31L493.85,117.8L493.96,118.24L494.02,118.71L494.14,119.03L494.44,118.12L494.5,117.82L494.68,117.46L494.97,118.47L495.27,117.67L495.33,117.74L497.58,114.23L497.64,113.82L497.93,113.35L497.99,113.01L500.6,107.68L500.65,107.65L500.77,107.82L501.01,107.16L501.07,106.94L501.9,107.93L502.08,107.6L502.13,107.42L502.9,106.48L503.2,107.05L503.26,107.06L503.67,106.49L503.79,106.81L503.85,106.4L506.16,103.8L506.22,103.46L506.57,104.05L507.05,103.53L507.11,103.04L508.59,101.02L508.76,101.53L508.82,101.58L509.95,102.29L510.01,102.02L513.44,96.76L513.5,97.11L513.62,97.22L515.63,93.19L515.75,93.42L515.81,93.46L517.05,90.51L517.35,90.79L517.41,90.96L518.95,87.98L519.24,88.15L519.3,88.31L520.37,86.33L520.66,86.6L520.72,86.92L520.84,87.05L520.96,86.31L521.26,86.44L521.32,86.34L522.2,85.04L522.32,85.14L522.38,85.26L522.56,85.67L522.74,84.92L522.8,84.81L522.85,84.96L523.09,83.78L523.21,83.85L523.27,83.65L523.86,83.11L523.92,83.02L524.99,80.88L525.04,80.82L525.99,79.77L526.11,80.03L526.17,80.21L527.53,77.99L527.59,78.01L527.89,78.96L528.42,78.44L528.48,78.27L528.66,79.07L529.07,77.65L529.13,77.9L529.19,77.55L530.37,75.24L530.49,75.33L530.55,75.38L531.62,72.19L531.68,72.33L532.5,72.98L532.56,72.77L532.92,72.63L533.04,72.35L533.1,71.86L533.33,72.61L533.69,71.82L533.75,71.46L534.04,71.48L534.22,70.94L534.28,70.85L534.69,70.29L534.75,69.94L536.29,68.78L536.35,69.01L536.41,69.1L537,67.5L537.06,67.04L537.48,65.87L537.83,66.46L537.89,66.29L537.95,66.59L538.36,65.32L538.42,65.68L538.48,65.4L538.6,65.7L538.78,65.12L539.08,65.22L539.13,64.85L539.96,64.52L540.02,64.36L540.14,64.86L540.44,64.2L540.67,64.21L540.73,63.9L541.32,64.39L541.38,64.57L541.86,62.94L542.27,63.1L542.33,63.32L543.1,62.78L543.22,62.93L543.28,63.13L543.46,63.21L543.57,62.56L543.63,61.98L544.23,60.69L544.52,61.56L544.58,61.48L545.35,60.58L545.41,60.33L545.53,60.73L545.88,59.47L545.94,59.08L546,58.9L546.24,59.5L546.42,59.33L546.48,60.02L548.01,56.74L548.13,57.34L548.19,57.61L548.61,58.78L548.84,57.47L548.9,57.42L549.97,56.31L550.03,55.91L550.38,55.47L550.74,56.22L550.8,55.86L551.45,56.66L551.57,56.45L551.63,56.07L552.22,56.76L552.45,56.59L552.51,56.36L553.16,55.06L553.58,55.59L553.64,56.03L555,54.31L555.06,54.48L555.12,54.6L556.89,50.93L557.01,51.21L557.07,51.34L558.02,50.72L558.08,50.78L559.03,49.44L559.08,49.17L559.62,49.35L559.91,48.34L559.97,48.82L560.03,48.92L560.21,49.11L560.51,48.4L560.8,48.96L560.86,48.91L560.92,49.07L561.45,48.43L561.51,48.55L561.57,48.06L562.46,47.41L562.52,47.67L562.64,47.92L563.05,47.04L563.11,46.87L563.23,47.02L563.47,46.31L563.52,46.02L564.12,44.17L564.59,44.47L564.65,44.63L564.95,43.56L565.42,43.9L565.48,44.32L565.77,43.17L566.37,43.76L566.43,43.64L568.14,41.83L568.2,41.57L568.26,41.89L568.73,40.42L568.79,40.35L569.62,39.43L569.8,39.83L569.86,39.77L570.98,38.91L571.04,39L571.46,39.25L571.75,38.79L571.81,38.91L571.87,38.87L571.99,39.11L572.11,38.67L572.58,38.84L572.64,39.16L572.88,38.74L574.42,40.52L574.48,40.46L574.54,40.24L576.49,37.92L576.55,38.12L576.61,38.46L577.67,36.65L577.79,36.85L577.85,36.81L578.21,36.94L578.86,35.86L578.92,35.85L580.04,32.9L580.1,32.94L580.46,33.08L580.63,32.26L580.81,32.74L580.87,33.03L582.29,32.44L582.35,32.36L582.59,32.56L583.24,31.4L583.3,31.63L583.36,31.74L583.95,32.41L584.24,32.16L584.3,31.82L584.9,31.43L585.01,31.73L585.07,32.05L587.62,27.71L587.68,28.2L587.74,28.51L589.1,26.03L589.16,26.23L590.34,24L590.4,24.04L590.46,24.3L591.94,20.25" style="vector-effect: non-scaling-stroke; fill: none; stroke: rgb(239, 85, 59); stroke-opacity: 1; stroke-width: 2px; opacity: 1;"/></g><g class="points"/><g class="text"/></g></g></g><g class="overplot"/><path class="xlines-above crisp" d="M118,505.5H711" style="fill: none; stroke-width: 1px; stroke: rgb(255, 255, 255); stroke-opacity: 1;"/><path class="ylines-above crisp" d="M118.5,100V505" style="fill: none; stroke-width: 1px; stroke: rgb(255, 255, 255); stroke-opacity: 1;"/><g class="overlines-above"/><g class="xaxislayer-above"><g class="xtick"><text text-anchor="middle" x="0" y="542" transform="translate(119,0)" style="font-family: 'Times New Roman'; font-size: 30px; fill: rgb(42, 63, 95); fill-opacity: 1; white-space: pre;">10</text></g><g class="xtick"><text text-anchor="middle" x="0" y="542" transform="translate(237.4,0)" style="font-family: 'Times New Roman'; font-size: 30px; fill: rgb(42, 63, 95); fill-opacity: 1; white-space: pre;">8</text></g><g class="xtick"><text text-anchor="middle" x="0" y="542" transform="translate(355.8,0)" style="font-family: 'Times New Roman'; font-size: 30px; fill: rgb(42, 63, 95); fill-opacity: 1; white-space: pre;">6</text></g><g class="xtick"><text text-anchor="middle" x="0" y="542" transform="translate(474.2,0)" style="font-family: 'Times New Roman'; font-size: 30px; fill: rgb(42, 63, 95); fill-opacity: 1; white-space: pre;">4</text></g><g class="xtick"><text text-anchor="middle" x="0" y="542" transform="translate(592.6,0)" style="font-family: 'Times New Roman'; font-size: 30px; fill: rgb(42, 63, 95); fill-opacity: 1; white-space: pre;">2</text></g><g class="xtick"><text text-anchor="middle" x="0" y="542" transform="translate(711,0)" style="font-family: 'Times New Roman'; font-size: 30px; fill: rgb(42, 63, 95); fill-opacity: 1; white-space: pre;">0</text></g></g><g class="yaxislayer-above"><g class="ytick"><text text-anchor="end" x="112" y="10.5" transform="translate(0,467.9)" style="font-family: 'Times New Roman'; font-size: 30px; fill: rgb(42, 63, 95); fill-opacity: 1; white-space: pre;">0</text></g><g class="ytick"><text text-anchor="end" x="112" y="10.5" transform="translate(0,389.37)" style="font-family: 'Times New Roman'; font-size: 30px; fill: rgb(42, 63, 95); fill-opacity: 1; white-space: pre;">500</text></g><g class="ytick"><text text-anchor="end" x="112" y="10.5" transform="translate(0,310.84000000000003)" style="font-family: 'Times New Roman'; font-size: 30px; fill: rgb(42, 63, 95); fill-opacity: 1; white-space: pre;">1000</text></g><g class="ytick"><text text-anchor="end" x="112" y="10.5" transform="translate(0,232.31)" style="font-family: 'Times New Roman'; font-size: 30px; fill: rgb(42, 63, 95); fill-opacity: 1; white-space: pre;">1500</text></g><g class="ytick"><text text-anchor="end" x="112" y="10.5" transform="translate(0,153.78)" style="font-family: 'Times New Roman'; font-size: 30px; fill: rgb(42, 63, 95); fill-opacity: 1; white-space: pre;">2000</text></g></g><g class="overaxes-above"/></g></g><g class="polarlayer"/><g class="ternarylayer"/><g class="geolayer"/><g class="funnelarealayer"/><g class="pielayer"/><g class="treemaplayer"/><g class="sunburstlayer"/><g class="glimages"/><defs id="topdefs-1fefe2"><g class="clips"/><clipPath id="legend1fefe2"><rect width="165" height="94" x="0" y="0"/></clipPath></defs><g class="layer-above"><g class="imagelayer"/><g class="shapelayer"/></g><g class="infolayer"><g class="legend" pointer-events="all" transform="translate(722.84, 100)"><rect class="bg" shape-rendering="crispEdges" style="stroke: rgb(68, 68, 68); stroke-opacity: 1; fill: rgb(255, 255, 255); fill-opacity: 1; stroke-width: 0px;" width="165" height="94" x="0" y="0"/><g class="scrollbox" transform="translate(0, 0)" clip-path="url('#legend1fefe2')"><g class="groups"><g class="traces" transform="translate(0, 26)" style="opacity: 1;"><text class="legendtext user-select-none" text-anchor="start" x="40" y="11.7" style="font-family: 'Times New Roman'; font-size: 30px; fill: rgb(42, 63, 95); fill-opacity: 1; white-space: pre;">True</text><g class="layers" style="opacity: 1;"><g class="legendfill"/><g class="legendlines"><path class="js-line" d="M5,0h30" style="fill: none; stroke: rgb(99, 110, 250); stroke-opacity: 1; stroke-width: 2px;"/></g><g class="legendsymbols"><g class="legendpoints"/></g></g><rect class="legendtoggle" pointer-events="all" x="0" y="-21" width="159.984375" height="42" style="cursor: pointer; fill: rgb(0, 0, 0); fill-opacity: 0;"/></g><g class="traces" transform="translate(0, 68)" style="opacity: 1;"><text class="legendtext user-select-none" text-anchor="start" x="40" y="11.7" style="font-family: 'Times New Roman'; font-size: 30px; fill: rgb(42, 63, 95); fill-opacity: 1; white-space: pre;">Estimated</text><g class="layers" style="opacity: 1;"><g class="legendfill"/><g class="legendlines"><path class="js-line" d="M5,0h30" style="fill: none; stroke: rgb(239, 85, 59); stroke-opacity: 1; stroke-width: 2px;"/></g><g class="legendsymbols"><g class="legendpoints"/></g></g><rect class="legendtoggle" pointer-events="all" x="0" y="-21" width="159.984375" height="42" style="cursor: pointer; fill: rgb(0, 0, 0); fill-opacity: 0;"/></g></g></g><rect class="scrollbar" rx="20" ry="3" width="0" height="0" style="fill: rgb(128, 139, 164); fill-opacity: 1;" x="0" y="0"/></g><g class="g-gtitle"><text class="gtitle" x="432" y="30" text-anchor="middle" dy="0.7em" style="font-family: 'Times New Roman'; font-size: 40px; fill: rgb(42, 63, 95); opacity: 1; font-weight: normal; white-space: pre;">Relative Position</text></g><g class="g-xtitle"><text class="xtitle" x="415" y="588.2" text-anchor="middle" style="font-family: 'Times New Roman'; font-size: 36px; fill: rgb(42, 63, 95); opacity: 1; font-weight: normal; white-space: pre;">Time-to-go (sec)</text></g><g class="g-ytitle" transform="translate(20.2001953125,0)"><text class="ytitle" transform="rotate(-90,11.799999999999997,302.5)" x="11.799999999999997" y="302.5" text-anchor="middle" style="font-family: 'Times New Roman'; font-size: 36px; fill: rgb(42, 63, 95); opacity: 1; font-weight: normal; white-space: pre;">Y(m)</text></g></g></svg>